@startuml

interface BWInstruction {
    + run(Scope)
}

interface BWExpression {
    getValue() : BWObject
    getIntValue() : int
}

class BWVariable {
    - name : String
    - value : BWObject
}

class BWObject {
    - bwClass : BWClass
    - variables : BWVariable
    - functions : BWFunction
    + callFunction(String) : BWObject
}

class BWInteger {
    - value : int
}

class BWClass {
    - name : String
    - functionPrototypes : List<AbstractFunction>
}

abstract class AbstractFunction {
    + {abstract} run()
}

class BWFunction {
    - name : String
    --
    + run()
}

class Program {
    - {static} instance : Program
    - functions : List<BWFunction>
    - classes : List<BWClass>
    - variables : List<BWVariable>
    - expressions : List<BWExpression>
    --
    - Program()
    + {static} getInstance() : Program
    + run()
}


BWObject "n" --> "1" BWClass : has class >
BWObject "1" *-- "n" BWVariable : > consists of
BWObject "1" *-- "n" BWFunction : > consists of
BWVariable "n" *-- "1" BWObject : > has value
BWClass "1" <-- "n" AbstractFunction : > has prototypes
Program "1" --> "n" BWClass : > has registered
Program "1" --> "n" BWFunction : > has registered
Program "1" -left-> "n" BWVariable : > has registered
BWInteger --|> BWObject

BWExpression ..|> BWInstruction
AbstractFunction ..|> BWExpression
BWFunction --|> AbstractFunction
Program "1" --* "n" BWExpression : > consists of

@enduml